<svg width="150" height="150" viewBox="0 0 150 150" fill="none" xmlns="http://www.w3.org/2000/svg">
<rect width="150" height="150" rx="50" fill="#776350"/>
<path d="M67.74 98.2611V89.9798C67.74 87.8658 69.4663 86.1521 71.5958 86.1521H79.38C80.4026 86.1521 81.3833 86.5554 82.1064 87.2732C82.8295 87.991 83.2357 88.9646 83.2357 89.9798V98.2611C83.2293 99.14 83.5764 99.9851 84.2002 100.609C84.8239 101.233 85.6726 101.583 86.558 101.583H91.8687C94.349 101.59 96.7299 100.616 98.4861 98.8772C100.242 97.1383 101.229 94.7772 101.229 92.3149V68.7227C101.229 66.7337 100.341 64.8471 98.8042 63.571L80.738 49.2471C77.5953 46.7357 73.0926 46.8168 70.0438 49.4397L52.3898 63.571C50.7803 64.8095 49.8184 66.7017 49.7708 68.7227V92.2909C49.7708 97.4229 53.9617 101.583 59.1313 101.583H64.3208C66.1596 101.583 67.6539 100.111 67.6673 98.2852L67.74 98.2611Z" fill="white"/>
</svg>
