<svg width="213" height="213" viewBox="0 0 213 213" fill="none" xmlns="http://www.w3.org/2000/svg">
<rect x="106.012" width="149.924" height="149.924" rx="35" transform="rotate(45 106.012 0)" fill="#776350"/>
<path d="M98.2522 129.773V121.492C98.2522 119.378 99.9785 117.664 102.108 117.664H109.892C110.915 117.664 111.895 118.068 112.619 118.785C113.342 119.503 113.748 120.477 113.748 121.492V129.773C113.741 130.652 114.089 131.497 114.712 132.121C115.336 132.745 116.185 133.096 117.07 133.095H122.381C124.861 133.102 127.242 132.128 128.998 130.389C130.754 128.651 131.741 126.289 131.741 123.827V100.235C131.741 98.2459 130.853 96.3593 129.316 95.0832L111.25 80.7593C108.107 78.2479 103.605 78.329 100.556 80.9519L82.902 95.0832C81.2925 96.3217 80.3305 98.2139 80.283 100.235V123.803C80.283 128.935 84.4738 133.095 89.6435 133.095H94.8329C96.6717 133.096 98.1661 131.623 98.1794 129.797L98.2522 129.773Z" fill="white"/>
</svg>
